# xmcd
#
# Track frame offsets: 
#        150
#        21898
#        41655
#        56859
#        76545
#        100996
#        145027
#        161373
#        183618
#        198881
#        217919
#        232602
#        266089
#        281209
#        301084
#        323535
#
# Disc length: 4692 seconds
#
# Revision: 0
# Processed by: cddbd v1.5.2PL0 Copyright (c) Steve Scherf et al.
# Submitted via: ExactAudioCopy v0.99pb4
#
DISCID=ce125210
DTITLE=Various Artist - 5 Songs By 6 Artists
DYEAR=2010
DGENRE=Vocal
TTITLE0=Lila Downs - My One And Only Love
TTITLE1=Angelique Kidjio - Summertime
TTITLE2=Jose Feliciano - Time After Time
TTITLE3=Diane Schurr - My One And Only Love
TTITLE4=Houston Person - My Romance
TTITLE5=Miles Davis - Time After Time(Live)
TTITLE6=Sting - My One And Only Love
TTITLE7=Torcuato Mariano - Dindi
TTITLE8=Chris Botti - My Romance
TTITLE9=Martin Taylor - My One And Only Love
TTITLE10=Frank Sinatra - My Romance
TTITLE11=Gal Costa - Dindi
TTITLE12=Louis Armstrong - My One and Only Love
TTITLE13=Kevin Mahogany - My Romance
TTITLE14=John Coltrane - My One And Only Love
TTITLE15=Willie Bobo - Dindi
EXTD=
EXTT0=
EXTT1=
EXTT2=
EXTT3=
EXTT4=
EXTT5=
EXTT6=
EXTT7=
EXTT8=
EXTT9=
EXTT10=
EXTT11=
EXTT12=
EXTT13=
EXTT14=
EXTT15=
PLAYORDER=
